<?xml version="1.0" encoding="UTF-8"?>
<svg width="2000px" height="16px" viewBox="0 0 2000 16" version="1.1" xmlns="http://www.w3.org/2000/svg" xmlns:xlink="http://www.w3.org/1999/xlink">
    <title>grid-16px</title>
    <g id="grid-16px" stroke="none" stroke-width="1" fill="none" fill-rule="evenodd">
        <rect id="Rectangle-Copy-4" fill="#00AAFF" x="0" y="0" width="2000" height="1"></rect>
        <rect id="Rectangle-Copy-2" fill="#E3E3E3" x="0" y="12" width="2000" height="4"></rect>
        <rect id="Rectangle-Copy-3" fill="#EEEEEE" x="0" y="8" width="2000" height="4"></rect>
        <path d="M19.238,13 C19.3966667,13 19.476,12.9206667 19.476,12.762 L19.476,12.762 L19.476,3.438 C19.476,3.27933333 19.3966667,3.2 19.238,3.2 L19.238,3.2 L17.656,3.2 C17.544,3.2 17.446,3.21866667 17.362,3.256 L17.362,3.256 L16.088,3.76 C15.9666667,3.79733333 15.906,3.886 15.906,4.026 L15.906,4.026 L15.906,5.09 C15.906,5.23 15.976,5.3 16.116,5.3 L16.116,5.3 L16.172,5.3 L17.404,5.048 C17.432,5.03866667 17.4553333,5.04333333 17.474,5.062 C17.4926667,5.08066667 17.502,5.104 17.502,5.132 L17.502,5.132 L17.502,12.762 C17.502,12.9206667 17.5813333,13 17.74,13 L17.74,13 L19.238,13 Z M24.082,13.098 C24.782,13.098 25.3886667,12.9393333 25.902,12.622 C26.4153333,12.3046667 26.7933333,11.8706667 27.036,11.32 C27.2133333,10.8906667 27.302,10.4053333 27.302,9.864 C27.302,9.21066667 27.19,8.674 26.966,8.254 C26.714,7.76866667 26.3663333,7.39766667 25.923,7.141 C25.4796667,6.88433333 24.978,6.756 24.418,6.756 C23.802,6.756 23.298,6.91466667 22.906,7.232 C22.878,7.26 22.8546667,7.26933333 22.836,7.26 C22.8173333,7.25066667 22.808,7.22733333 22.808,7.19 L22.808,7.19 L22.808,5.902 C22.808,5.57533333 22.9176667,5.307 23.137,5.097 C23.3563333,4.887 23.6386667,4.782 23.984,4.782 C24.3106667,4.782 24.5766667,4.88466667 24.782,5.09 C24.9873333,5.29533333 25.09,5.552 25.09,5.86 L25.09,5.86 L25.09,6 C25.09,6.04666667 25.111,6.084 25.153,6.112 C25.195,6.14 25.2533333,6.154 25.328,6.154 L25.328,6.154 L26.826,6.154 C26.9846667,6.154 27.064,6.07466667 27.064,5.916 L27.064,5.916 L27.064,5.594 C27.064,5.09933333 26.9356667,4.663 26.679,4.285 C26.4223333,3.907 26.0606667,3.613 25.594,3.403 C25.1273333,3.193 24.5906667,3.088 23.984,3.088 C23.368,3.088 22.822,3.193 22.346,3.403 C21.87,3.613 21.499,3.91166667 21.233,4.299 C20.967,4.68633333 20.834,5.132 20.834,5.636 L20.834,5.636 L20.834,9.85 C20.834,10.354 20.918,10.8113333 21.086,11.222 C21.3193333,11.81 21.6973333,12.2696667 22.22,12.601 C22.7426667,12.9323333 23.3633333,13.098 24.082,13.098 Z M24.068,11.39 C23.564,11.39 23.2093333,11.1846667 23.004,10.774 C22.8826667,10.5406667 22.822,10.256 22.822,9.92 C22.822,9.53733333 22.892,9.22466667 23.032,8.982 C23.228,8.59933333 23.578,8.408 24.082,8.408 C24.53,8.408 24.8706667,8.59466667 25.104,8.968 C25.2533333,9.21066667 25.328,9.51866667 25.328,9.892 C25.328,10.2373333 25.258,10.5313333 25.118,10.774 C24.9033333,11.1846667 24.5533333,11.39 24.068,11.39 Z" id="16" fill-opacity="0.300262238" fill="#00AAFF" fill-rule="nonzero"></path>
    </g>
</svg>