<?xml version="1.0" encoding="UTF-8"?>
<svg width="2000px" height="24px" viewBox="0 0 2000 24" version="1.1" xmlns="http://www.w3.org/2000/svg" xmlns:xlink="http://www.w3.org/1999/xlink">
    <title>grid-24px</title>
    <g id="grid-24px" stroke="none" stroke-width="1" fill="none" fill-rule="evenodd">
        <rect id="Rectangle-Copy-4" fill="#00AAFF" x="0" y="-2.84217094e-14" width="2000" height="1"></rect>
        <rect id="Rectangle-Copy-5" fill="#E3E3E3" x="0" y="20" width="2000" height="4"></rect>
        <rect id="Rectangle-Copy-6" fill="#EEEEEE" x="0" y="16" width="2000" height="4"></rect>
        <path d="M22.528,17 C22.6866667,17 22.766,16.9206667 22.766,16.762 L22.766,16.762 L22.766,15.544 C22.766,15.3853333 22.6866667,15.306 22.528,15.306 L22.528,15.306 L18.86,15.306 C18.8226667,15.306 18.7993333,15.2943333 18.79,15.271 C18.7806667,15.2476667 18.79,15.2266667 18.818,15.208 C19.2473333,14.7506667 19.4666667,14.5173333 19.476,14.508 C20.3906667,13.556 21.0346667,12.8513333 21.408,12.394 C21.8,11.918 22.094,11.4746667 22.29,11.064 C22.486,10.6533333 22.584,10.252 22.584,9.86 C22.584,9.34666667 22.451,8.88 22.185,8.46 C21.919,8.04 21.541,7.70633333 21.051,7.459 C20.561,7.21166667 19.9846667,7.088 19.322,7.088 C18.7246667,7.088 18.1856667,7.19066667 17.705,7.396 C17.2243333,7.60133333 16.8393333,7.89766667 16.55,8.285 C16.2606667,8.67233333 16.102,9.118 16.074,9.622 L16.074,9.622 L16.074,10.21 C16.074,10.3686667 16.1533333,10.448 16.312,10.448 L16.312,10.448 L17.824,10.448 C17.9826667,10.448 18.062,10.3686667 18.062,10.21 L18.062,10.21 L18.062,9.93 C18.062,9.58466667 18.1786667,9.307 18.412,9.097 C18.6453333,8.887 18.9486667,8.782 19.322,8.782 C19.6953333,8.782 19.9986667,8.887 20.232,9.097 C20.4653333,9.307 20.582,9.57533333 20.582,9.902 C20.582,10.3593333 20.1573333,11.0593333 19.308,12.002 C19.0933333,12.226 18.7713333,12.5806667 18.342,13.066 C18.1926667,13.2246667 17.9033333,13.5396667 17.474,14.011 C17.0446667,14.4823333 16.6386667,14.9093333 16.256,15.292 C16.172,15.3853333 16.13,15.4833333 16.13,15.586 L16.13,15.586 L16.13,16.762 C16.13,16.9206667 16.2093333,17 16.368,17 L16.368,17 L22.528,17 Z M30.088,17 C30.2466667,17 30.326,16.9206667 30.326,16.762 L30.326,16.762 L30.326,14.564 C30.326,14.508 30.354,14.48 30.41,14.48 L30.41,14.48 L30.914,14.48 C31.0726667,14.48 31.152,14.4006667 31.152,14.242 L31.152,14.242 L31.152,12.968 C31.152,12.8093333 31.0726667,12.73 30.914,12.73 L30.914,12.73 L30.41,12.73 C30.354,12.73 30.326,12.702 30.326,12.646 L30.326,12.646 L30.326,10.994 C30.326,10.8353333 30.2466667,10.756 30.088,10.756 L30.088,10.756 L28.59,10.756 C28.4313333,10.756 28.352,10.8353333 28.352,10.994 L28.352,10.994 L28.352,12.646 C28.352,12.702 28.324,12.73 28.268,12.73 L28.268,12.73 L26.182,12.73 C26.1073333,12.73 26.084,12.6973333 26.112,12.632 L26.112,12.632 L28.408,7.48 L28.436,7.368 C28.436,7.256 28.366,7.2 28.226,7.2 L28.226,7.2 L26.63,7.2 C26.5086667,7.2 26.4153333,7.26066667 26.35,7.382 L26.35,7.382 L23.858,12.94 C23.8206667,13.0426667 23.802,13.1406667 23.802,13.234 L23.802,13.234 L23.802,14.242 C23.802,14.4006667 23.8813333,14.48 24.04,14.48 L24.04,14.48 L28.268,14.48 C28.324,14.48 28.352,14.508 28.352,14.564 L28.352,14.564 L28.352,16.762 C28.352,16.9206667 28.4313333,17 28.59,17 L28.59,17 L30.088,17 Z" id="24" fill-opacity="0.300262238" fill="#00AAFF" fill-rule="nonzero"></path>
    </g>
</svg>