<?xml version="1.0" encoding="UTF-8"?>
<svg width="2000px" height="20px" viewBox="0 0 2000 20" version="1.1" xmlns="http://www.w3.org/2000/svg" xmlns:xlink="http://www.w3.org/1999/xlink">
    <title>grid-20px</title>
    <g id="grid-20px" stroke="none" stroke-width="1" fill="none" fill-rule="evenodd">
        <rect id="Rectangle-Copy-4" fill="#00AAFF" x="0" y="0" width="2000" height="1"></rect>
        <rect id="Rectangle-Copy-2" fill="#E3E3E3" x="0" y="16" width="2000" height="4"></rect>
        <rect id="Rectangle-Copy-3" fill="#EEEEEE" x="0" y="12" width="2000" height="4"></rect>
        <path d="M22.528,15 C22.6866667,15 22.766,14.9206667 22.766,14.762 L22.766,14.762 L22.766,13.544 C22.766,13.3853333 22.6866667,13.306 22.528,13.306 L22.528,13.306 L18.86,13.306 C18.8226667,13.306 18.7993333,13.2943333 18.79,13.271 C18.7806667,13.2476667 18.79,13.2266667 18.818,13.208 C19.2473333,12.7506667 19.4666667,12.5173333 19.476,12.508 C20.3906667,11.556 21.0346667,10.8513333 21.408,10.394 C21.8,9.918 22.094,9.47466667 22.29,9.064 C22.486,8.65333333 22.584,8.252 22.584,7.86 C22.584,7.34666667 22.451,6.88 22.185,6.46 C21.919,6.04 21.541,5.70633333 21.051,5.459 C20.561,5.21166667 19.9846667,5.088 19.322,5.088 C18.7246667,5.088 18.1856667,5.19066667 17.705,5.396 C17.2243333,5.60133333 16.8393333,5.89766667 16.55,6.285 C16.2606667,6.67233333 16.102,7.118 16.074,7.622 L16.074,7.622 L16.074,8.21 C16.074,8.36866667 16.1533333,8.448 16.312,8.448 L16.312,8.448 L17.824,8.448 C17.9826667,8.448 18.062,8.36866667 18.062,8.21 L18.062,8.21 L18.062,7.93 C18.062,7.58466667 18.1786667,7.307 18.412,7.097 C18.6453333,6.887 18.9486667,6.782 19.322,6.782 C19.6953333,6.782 19.9986667,6.887 20.232,7.097 C20.4653333,7.307 20.582,7.57533333 20.582,7.902 C20.582,8.35933333 20.1573333,9.05933333 19.308,10.002 C19.0933333,10.226 18.7713333,10.5806667 18.342,11.066 C18.1926667,11.2246667 17.9033333,11.5396667 17.474,12.011 C17.0446667,12.4823333 16.6386667,12.9093333 16.256,13.292 C16.172,13.3853333 16.13,13.4833333 16.13,13.586 L16.13,13.586 L16.13,14.762 C16.13,14.9206667 16.2093333,15 16.368,15 L16.368,15 L22.528,15 Z M27.316,15.154 C28.3426667,15.154 29.157,14.867 29.759,14.293 C30.361,13.719 30.662,12.9373333 30.662,11.948 L30.662,11.948 L30.662,8.252 C30.662,7.28133333 30.361,6.51133333 29.759,5.942 C29.157,5.37266667 28.3426667,5.088 27.316,5.088 C26.2893333,5.088 25.4773333,5.37266667 24.88,5.942 C24.2826667,6.51133333 23.984,7.28133333 23.984,8.252 L23.984,8.252 L23.984,11.948 C23.984,12.9373333 24.2826667,13.719 24.88,14.293 C25.4773333,14.867 26.2893333,15.154 27.316,15.154 Z M27.316,13.46 C26.9053333,13.46 26.5763333,13.3316667 26.329,13.075 C26.0816667,12.8183333 25.958,12.4753333 25.958,12.046 L25.958,12.046 L25.958,8.196 C25.958,7.76666667 26.0816667,7.42366667 26.329,7.167 C26.5763333,6.91033333 26.9053333,6.782 27.316,6.782 C27.736,6.782 28.0696667,6.91033333 28.317,7.167 C28.5643333,7.42366667 28.688,7.76666667 28.688,8.196 L28.688,8.196 L28.688,12.046 C28.688,12.4753333 28.5643333,12.8183333 28.317,13.075 C28.0696667,13.3316667 27.736,13.46 27.316,13.46 Z" id="20" fill-opacity="0.300262238" fill="#00AAFF" fill-rule="nonzero"></path>
    </g>
</svg>