<?xml version="1.0" encoding="UTF-8"?>
<svg width="2000px" height="8px" viewBox="0 0 2000 8" version="1.1" xmlns="http://www.w3.org/2000/svg" xmlns:xlink="http://www.w3.org/1999/xlink">
    <title>grid-8px</title>
    <g id="grid-8px" stroke="none" stroke-width="1" fill="none" fill-rule="evenodd">
        <rect id="Rectangle-Copy-7" fill="#E3E3E3" x="0" y="4" width="2000" height="4"></rect>
        <rect id="Rectangle-Copy-8" fill="#EEEEEE" x="0" y="0" width="2000" height="4"></rect>
        <rect id="Rectangle-Copy-4" fill="#00AAFF" x="0" y="0" width="2000" height="1"></rect>
        <path d="M19.266,9.2760625 C19.9566667,9.2760625 20.5563333,9.13839583 21.065,8.8630625 C21.5736667,8.58772917 21.954,8.2120625 22.206,7.7360625 C22.4206667,7.32539583 22.528,6.84939583 22.528,6.3080625 C22.528,5.7480625 22.4253333,5.26272917 22.22,4.8520625 C22.052,4.49739583 21.8046667,4.21739583 21.478,4.0120625 C21.422,3.96539583 21.422,3.9280625 21.478,3.9000625 C21.7393333,3.69472917 21.9633333,3.45672917 22.15,3.1860625 C22.3833333,2.8220625 22.5,2.41139583 22.5,1.9540625 C22.5,1.51539583 22.3926667,1.09072917 22.178,0.6800625 C21.926,0.185395833 21.5503333,-0.1879375 21.051,-0.4399375 C20.5516667,-0.6919375 19.9613333,-0.8179375 19.28,-0.8179375 C18.6826667,-0.8179375 18.1436667,-0.710604167 17.663,-0.4959375 C17.1823333,-0.281270833 16.8066667,0.0220625 16.536,0.4140625 C16.228,0.852729167 16.074,1.36139583 16.074,1.9400625 C16.074,2.4160625 16.186,2.84072917 16.41,3.2140625 C16.5873333,3.4940625 16.802,3.72739583 17.054,3.9140625 C17.11,3.9420625 17.11,3.97939583 17.054,4.0260625 C16.7553333,4.24072917 16.5173333,4.51139583 16.34,4.8380625 C16.1253333,5.2860625 16.018,5.77139583 16.018,6.2940625 C16.018,6.7980625 16.13,7.26939583 16.354,7.7080625 C16.6153333,8.22139583 17.0003333,8.6110625 17.509,8.8770625 C18.0176667,9.1430625 18.6033333,9.2760625 19.266,9.2760625 Z M19.28,3.4520625 C19.0466667,3.4520625 18.839,3.40772917 18.657,3.3190625 C18.475,3.23039583 18.3326667,3.09739583 18.23,2.9200625 C18.0993333,2.71472917 18.034,2.46739583 18.034,2.1780625 C18.034,1.8980625 18.0806667,1.66472917 18.174,1.4780625 C18.2766667,1.29139583 18.4236667,1.14439583 18.615,1.0370625 C18.8063333,0.929729167 19.028,0.8760625 19.28,0.8760625 C19.8213333,0.8760625 20.1993333,1.0860625 20.414,1.5060625 C20.5073333,1.68339583 20.554,1.90272917 20.554,2.1640625 C20.554,2.45339583 20.4933333,2.70072917 20.372,2.9060625 C20.1573333,3.2700625 19.7933333,3.4520625 19.28,3.4520625 Z M19.28,7.6100625 C18.8226667,7.6100625 18.482,7.43272917 18.258,7.0780625 C18.1086667,6.8260625 18.034,6.51339583 18.034,6.1400625 C18.034,5.85072917 18.0853333,5.5940625 18.188,5.3700625 C18.412,4.91272917 18.776,4.6840625 19.28,4.6840625 C19.5506667,4.6840625 19.7816667,4.74472917 19.973,4.8660625 C20.1643333,4.98739583 20.3113333,5.1600625 20.414,5.3840625 C20.5073333,5.59872917 20.554,5.84139583 20.554,6.1120625 C20.554,6.51339583 20.4653333,6.84939583 20.288,7.1200625 C20.064,7.44672917 19.728,7.6100625 19.28,7.6100625 Z" id="8" fill-opacity="0.300262238" fill="#00AAFF" fill-rule="nonzero"></path>
    </g>
</svg>