<?xml version="1.0" encoding="UTF-8"?>
<svg width="2000px" height="12px" viewBox="0 0 2000 12" version="1.1" xmlns="http://www.w3.org/2000/svg" xmlns:xlink="http://www.w3.org/1999/xlink">
    <title>grid-12px</title>
    <g id="grid-12px" stroke="none" stroke-width="1" fill="none" fill-rule="evenodd">
        <rect id="Rectangle-Copy-4" fill="#00AAFF" x="0" y="0" width="2000" height="1"></rect>
        <rect id="Rectangle-Copy-5" fill="#E3E3E3" x="0" y="8" width="2000" height="4"></rect>
        <rect id="Rectangle-Copy-6" fill="#EEEEEE" x="0" y="4" width="2000" height="4"></rect>
        <path d="M19.238,11.5 C19.3966667,11.5 19.476,11.4206667 19.476,11.262 L19.476,11.262 L19.476,1.938 C19.476,1.77933333 19.3966667,1.7 19.238,1.7 L19.238,1.7 L17.656,1.7 C17.544,1.7 17.446,1.71866667 17.362,1.756 L17.362,1.756 L16.088,2.26 C15.9666667,2.29733333 15.906,2.386 15.906,2.526 L15.906,2.526 L15.906,3.59 C15.906,3.73 15.976,3.8 16.116,3.8 L16.116,3.8 L16.172,3.8 L17.404,3.548 C17.432,3.53866667 17.4553333,3.54333333 17.474,3.562 C17.4926667,3.58066667 17.502,3.604 17.502,3.632 L17.502,3.632 L17.502,11.262 C17.502,11.4206667 17.5813333,11.5 17.74,11.5 L17.74,11.5 L19.238,11.5 Z M27.274,11.5 C27.4326667,11.5 27.512,11.4206667 27.512,11.262 L27.512,11.262 L27.512,10.044 C27.512,9.88533333 27.4326667,9.806 27.274,9.806 L27.274,9.806 L23.606,9.806 C23.5686667,9.806 23.5453333,9.79433333 23.536,9.771 C23.5266667,9.74766667 23.536,9.72666667 23.564,9.708 C23.9933333,9.25066667 24.2126667,9.01733333 24.222,9.008 C25.1366667,8.056 25.7806667,7.35133333 26.154,6.894 C26.546,6.418 26.84,5.97466667 27.036,5.564 C27.232,5.15333333 27.33,4.752 27.33,4.36 C27.33,3.84666667 27.197,3.38 26.931,2.96 C26.665,2.54 26.287,2.20633333 25.797,1.959 C25.307,1.71166667 24.7306667,1.588 24.068,1.588 C23.4706667,1.588 22.9316667,1.69066667 22.451,1.896 C21.9703333,2.10133333 21.5853333,2.39766667 21.296,2.785 C21.0066667,3.17233333 20.848,3.618 20.82,4.122 L20.82,4.122 L20.82,4.71 C20.82,4.86866667 20.8993333,4.948 21.058,4.948 L21.058,4.948 L22.57,4.948 C22.7286667,4.948 22.808,4.86866667 22.808,4.71 L22.808,4.71 L22.808,4.43 C22.808,4.08466667 22.9246667,3.807 23.158,3.597 C23.3913333,3.387 23.6946667,3.282 24.068,3.282 C24.4413333,3.282 24.7446667,3.387 24.978,3.597 C25.2113333,3.807 25.328,4.07533333 25.328,4.402 C25.328,4.85933333 24.9033333,5.55933333 24.054,6.502 C23.8393333,6.726 23.5173333,7.08066667 23.088,7.566 C22.9386667,7.72466667 22.6493333,8.03966667 22.22,8.511 C21.7906667,8.98233333 21.3846667,9.40933333 21.002,9.792 C20.918,9.88533333 20.876,9.98333333 20.876,10.086 L20.876,10.086 L20.876,11.262 C20.876,11.4206667 20.9553333,11.5 21.114,11.5 L21.114,11.5 L27.274,11.5 Z" id="12" fill-opacity="0.300262238" fill="#00AAFF" fill-rule="nonzero"></path>
    </g>
</svg>