<?xml version="1.0" encoding="UTF-8"?>
<svg width="44px" height="44px" viewBox="0 0 44 44" version="1.1" xmlns="http://www.w3.org/2000/svg" xmlns:xlink="http://www.w3.org/1999/xlink">
    <title>cat</title>
    <g id="Artboard" stroke="none" stroke-width="1" fill="none" fill-rule="evenodd">
        <circle id="Oval" stroke="#FFFFFF" stroke-width="2" cx="22" cy="22" r="21"></circle>
        <path d="M22.012,21.284 C20.693,20.429 19.808,19.073 19.711,17.531 L19.702,17.534 L19.702,17.247 C19.702,17.151 19.705,17.055 19.711,16.96 L19.808,10.839 C19.813,10.545 19.995,10.286 20.261,10.196 C20.526,10.106 20.817,10.204 20.984,10.44 L22.675,12.841 C23.459,12.469 24.353,12.258 25.302,12.258 C26.252,12.258 27.146,12.469 27.93,12.841 L29.621,10.44 C29.788,10.204 30.078,10.106 30.344,10.196 C30.61,10.286 30.792,10.545 30.796,10.839 L30.903,17.534 L30.894,17.531 C30.806,18.936 30.063,20.186 28.934,21.044 C28.965,21.073 28.996,21.102 29.026,21.133 C29.524,21.634 29.969,22.292 29.969,23.623 C29.969,24.943 29.745,25.836 29.519,26.632 C29.339,27.264 29.146,27.816 29.146,28.557 C29.146,30.095 29.98,32.19 29.98,32.19 C30.103,32.504 30.062,32.858 29.872,33.136 C29.682,33.415 29.367,33.581 29.03,33.581 L20.881,33.581 C20.66,33.581 20.444,33.509 20.268,33.376 C20.268,33.376 19.93,33.135 19.547,32.611 C19.075,32.712 18.659,32.909 18.225,33.092 C17.321,33.474 16.372,33.837 15.095,33.837 C12.104,33.837 9.923,32.508 10.054,29.982 C10.089,29.304 10.668,28.782 11.346,28.817 C12.024,28.853 12.546,29.431 12.51,30.109 C12.484,30.617 12.805,30.912 13.25,31.091 C13.762,31.297 14.403,31.377 15.095,31.377 C16.204,31.377 16.959,30.947 17.74,30.628 C18.017,30.515 18.296,30.411 18.584,30.325 C18.334,28.987 18.433,27.128 19.569,24.677 C20.155,23.412 20.891,22.612 21.536,21.871 C21.707,21.675 21.869,21.484 22.012,21.284 L22.012,21.284 Z M27.526,15.095 C27.917,15.095 28.235,15.43 28.235,15.843 C28.235,16.255 27.917,16.591 27.526,16.591 C27.135,16.591 26.817,16.255 26.817,15.843 C26.817,15.43 27.135,15.095 27.526,15.095 Z M23.053,15.095 C23.444,15.095 23.762,15.43 23.762,15.843 C23.762,16.255 23.444,16.591 23.053,16.591 C22.662,16.591 22.344,16.255 22.344,15.843 C22.344,15.43 22.662,15.095 23.053,15.095 Z" id="Shape" fill="#FFFFFF"></path>
    </g>
</svg>