<?xml version="1.0" encoding="UTF-8" standalone="no"?>
<svg width="44px" height="44px" viewBox="0 0 44 44" version="1.1" xmlns="http://www.w3.org/2000/svg" xmlns:xlink="http://www.w3.org/1999/xlink" 
	xml:space="preserve" xmlns:serif="http://www.serif.com/" style="fill-rule:evenodd;clip-rule:evenodd;stroke-miterlimit:10;">
	<g id="Artboard2">
			<clipPath id="_clip1"><path d="M22,44c12.15,0 22,-9.85 22,-22c0,-12.15 -9.85,-22 -22,-22c-12.15,0 -22,9.85 -22,22c0,12.15 9.85,22 22,22Z"/></clipPath>
			<g clip-path="url(#_clip1)">
				<circle cx="22" cy="22" r="22" style="fill:none;stroke:#fff;stroke-width:4px;"/>
			</g>
		<path d="M14,17.8c0,4.32 8,16.2 8,16.2c0,0 8,-11.88 8,-16.2c0,-4.305 -3.578,-7.8 -8,-7.8c-4.422,0 -8,3.495 -8,7.8Zm2.909,0.195c0,-2.655 2.444,-4.995 5.091,-4.995c2.647,0 5.062,2.37 5.062,5.01c0,2.655 -2.429,5.46 -5.091,5.46c-2.647,0 -5.062,-2.82 -5.062,-5.475Z" style="fill:#fff;"/>
	</g>
</svg>